%TF.GenerationSoftware,KiCad,Pcbnew,10.0.3*%
%TF.CreationDate,2026-05-26T02:46:54+05:30*%
%TF.ProjectId,STM32,53544d33-322e-46b6-9963-61645f706362,rev?*%
%TF.SameCoordinates,Original*%
%TF.FileFunction,Copper,L1,Top*%
%TF.FilePolarity,Positive*%
%FSLAX46Y46*%
G04 Gerber Fmt 4.6, Leading zero omitted, Abs format (unit mm)*
G04 Created by KiCad (PCBNEW 10.0.3) date 2026-05-26 02:46:54*
%MOMM*%
%LPD*%
G01*
G04 APERTURE LIST*
G04 Aperture macros list*
%AMRoundRect*
0 Rectangle with rounded corners*
0 $1 Rounding radius*
0 $2 $3 $4 $5 $6 $7 $8 $9 X,Y pos of 4 corners*
0 Add a 4 corners polygon primitive as box body*
4,1,4,$2,$3,$4,$5,$6,$7,$8,$9,$2,$3,0*
0 Add four circle primitives for the rounded corners*
1,1,$1+$1,$2,$3*
1,1,$1+$1,$4,$5*
1,1,$1+$1,$6,$7*
1,1,$1+$1,$8,$9*
0 Add four rect primitives between the rounded corners*
20,1,$1+$1,$2,$3,$4,$5,0*
20,1,$1+$1,$4,$5,$6,$7,0*
20,1,$1+$1,$6,$7,$8,$9,0*
20,1,$1+$1,$8,$9,$2,$3,0*%
G04 Aperture macros list end*
%TA.AperFunction,ComponentPad*%
%ADD10R,1.700000X1.700000*%
%TD*%
%TA.AperFunction,ComponentPad*%
%ADD11C,1.700000*%
%TD*%
%TA.AperFunction,SMDPad,CuDef*%
%ADD12RoundRect,0.140000X0.170000X-0.140000X0.170000X0.140000X-0.170000X0.140000X-0.170000X-0.140000X0*%
%TD*%
%TA.AperFunction,SMDPad,CuDef*%
%ADD13RoundRect,0.225000X-0.225000X-0.250000X0.225000X-0.250000X0.225000X0.250000X-0.225000X0.250000X0*%
%TD*%
%TA.AperFunction,SMDPad,CuDef*%
%ADD14RoundRect,0.135000X0.135000X0.185000X-0.135000X0.185000X-0.135000X-0.185000X0.135000X-0.185000X0*%
%TD*%
%TA.AperFunction,SMDPad,CuDef*%
%ADD15RoundRect,0.250000X0.475000X-0.250000X0.475000X0.250000X-0.475000X0.250000X-0.475000X-0.250000X0*%
%TD*%
%TA.AperFunction,SMDPad,CuDef*%
%ADD16RoundRect,0.140000X-0.170000X0.140000X-0.170000X-0.140000X0.170000X-0.140000X0.170000X0.140000X0*%
%TD*%
%TA.AperFunction,SMDPad,CuDef*%
%ADD17RoundRect,0.135000X-0.135000X-0.185000X0.135000X-0.185000X0.135000X0.185000X-0.135000X0.185000X0*%
%TD*%
%TA.AperFunction,SMDPad,CuDef*%
%ADD18RoundRect,0.135000X-0.185000X0.135000X-0.185000X-0.135000X0.185000X-0.135000X0.185000X0.135000X0*%
%TD*%
%TA.AperFunction,SMDPad,CuDef*%
%ADD19RoundRect,0.218750X-0.256250X0.218750X-0.256250X-0.218750X0.256250X-0.218750X0.256250X0.218750X0*%
%TD*%
%TA.AperFunction,SMDPad,CuDef*%
%ADD20RoundRect,0.375000X-0.375000X0.625000X-0.375000X-0.625000X0.375000X-0.625000X0.375000X0.625000X0*%
%TD*%
%TA.AperFunction,SMDPad,CuDef*%
%ADD21RoundRect,0.500000X-1.400000X0.500000X-1.400000X-0.500000X1.400000X-0.500000X1.400000X0.500000X0*%
%TD*%
%TA.AperFunction,SMDPad,CuDef*%
%ADD22RoundRect,0.140000X0.140000X0.170000X-0.140000X0.170000X-0.140000X-0.170000X0.140000X-0.170000X0*%
%TD*%
%TA.AperFunction,SMDPad,CuDef*%
%ADD23RoundRect,0.135000X0.185000X-0.135000X0.185000X0.135000X-0.185000X0.135000X-0.185000X-0.135000X0*%
%TD*%
%TA.AperFunction,SMDPad,CuDef*%
%ADD24RoundRect,0.250000X-0.350000X0.450000X-0.350000X-0.450000X0.350000X-0.450000X0.350000X0.450000X0*%
%TD*%
%TA.AperFunction,SMDPad,CuDef*%
%ADD25RoundRect,0.140000X-0.140000X-0.170000X0.140000X-0.170000X0.140000X0.170000X-0.140000X0.170000X0*%
%TD*%
%TA.AperFunction,SMDPad,CuDef*%
%ADD26RoundRect,0.075000X-0.662500X-0.075000X0.662500X-0.075000X0.662500X0.075000X-0.662500X0.075000X0*%
%TD*%
%TA.AperFunction,SMDPad,CuDef*%
%ADD27RoundRect,0.075000X-0.075000X-0.662500X0.075000X-0.662500X0.075000X0.662500X-0.075000X0.662500X0*%
%TD*%
%TA.AperFunction,SMDPad,CuDef*%
%ADD28RoundRect,0.112500X0.537500X-0.112500X0.537500X0.112500X-0.537500X0.112500X-0.537500X-0.112500X0*%
%TD*%
%TA.AperFunction,ComponentPad*%
%ADD29O,1.800000X1.150000*%
%TD*%
%TA.AperFunction,ComponentPad*%
%ADD30O,2.000000X1.450000*%
%TD*%
%TA.AperFunction,SMDPad,CuDef*%
%ADD31R,0.800000X1.000000*%
%TD*%
%TA.AperFunction,SMDPad,CuDef*%
%ADD32R,1.500000X0.700000*%
%TD*%
%TA.AperFunction,ViaPad*%
%ADD33C,0.600000*%
%TD*%
%TA.AperFunction,Conductor*%
%ADD34C,0.500000*%
%TD*%
%TA.AperFunction,Conductor*%
%ADD35C,0.300000*%
%TD*%
G04 APERTURE END LIST*
D10*
%TO.P,J4,1,Pin_1_1*%
%TO.N,+3.3V*%
X56440000Y-80500000D03*
D11*
%TO.P,J4,2,Pin_2_2*%
%TO.N,/I2C2_SCL*%
X58980000Y-80500000D03*
%TO.P,J4,3,Pin_3_3*%
%TO.N,/I2C2_SDA*%
X61520000Y-80500000D03*
%TO.P,J4,4,Pin_4_4*%
%TO.N,GND*%
X64060000Y-80500000D03*
%TD*%
D12*
%TO.P,C13,1*%
%TO.N,/HSE_OUT*%
X53750000Y-67980000D03*
%TO.P,C13,2*%
%TO.N,GND*%
X53750000Y-67020000D03*
%TD*%
D13*
%TO.P,C3,1*%
%TO.N,+3.3V*%
X58975000Y-59250000D03*
%TO.P,C3,2*%
%TO.N,GND*%
X60525000Y-59250000D03*
%TD*%
D12*
%TO.P,C12,1*%
%TO.N,/HSE_IN*%
X53750000Y-65980000D03*
%TO.P,C12,2*%
%TO.N,GND*%
X53750000Y-65020000D03*
%TD*%
D14*
%TO.P,R4,1*%
%TO.N,+3.3V*%
X60760000Y-77250000D03*
%TO.P,R4,2*%
%TO.N,/I2C2_SCL*%
X59740000Y-77250000D03*
%TD*%
D15*
%TO.P,C2,1*%
%TO.N,+3.3V*%
X75500000Y-76750000D03*
%TO.P,C2,2*%
%TO.N,GND*%
X75500000Y-74850000D03*
%TD*%
D12*
%TO.P,C8,1*%
%TO.N,+3.3VA*%
X56250000Y-68480000D03*
%TO.P,C8,2*%
%TO.N,GND*%
X56250000Y-67520000D03*
%TD*%
D16*
%TO.P,C6,1*%
%TO.N,+3.3V*%
X68500000Y-63770000D03*
%TO.P,C6,2*%
%TO.N,GND*%
X68500000Y-64730000D03*
%TD*%
D14*
%TO.P,R1,1*%
%TO.N,/PWR_LED_K*%
X79010000Y-72800000D03*
%TO.P,R1,2*%
%TO.N,GND*%
X77990000Y-72800000D03*
%TD*%
D17*
%TO.P,R5,1*%
%TO.N,+3.3V*%
X62240000Y-77250000D03*
%TO.P,R5,2*%
%TO.N,/I2C2_SDA*%
X63260000Y-77250000D03*
%TD*%
D10*
%TO.P,J2,1,Pin_1_1*%
%TO.N,+3.3V*%
X59250000Y-54250000D03*
D11*
%TO.P,J2,2,Pin_2_2*%
%TO.N,/UART1_TX*%
X56710000Y-54250000D03*
%TO.P,J2,3,Pin_3_3*%
%TO.N,/UART1_RX*%
X54170000Y-54250000D03*
%TO.P,J2,4,Pin_4_4*%
%TO.N,GND*%
X51630000Y-54250000D03*
%TD*%
D18*
%TO.P,R3,1*%
%TO.N,+3.3V*%
X72250000Y-64490000D03*
%TO.P,R3,2*%
%TO.N,/USB_D+*%
X72250000Y-65510000D03*
%TD*%
D19*
%TO.P,FB1,1*%
%TO.N,+3.3VA*%
X57750000Y-71412500D03*
%TO.P,FB1,2*%
%TO.N,+3.3V*%
X57750000Y-72987500D03*
%TD*%
D20*
%TO.P,U1,1,GND_1*%
%TO.N,GND*%
X72800000Y-72350000D03*
%TO.P,U1,2,VO_2*%
%TO.N,+3.3V*%
X70500000Y-72350000D03*
D21*
X70500000Y-78650000D03*
D20*
%TO.P,U1,3,VI_3*%
%TO.N,VBUS*%
X68200000Y-72350000D03*
%TD*%
D10*
%TO.P,J3,1,Pin_1_1*%
%TO.N,+3.3V*%
X71310000Y-54250000D03*
D11*
%TO.P,J3,2,Pin_2_2*%
%TO.N,/SWDIO*%
X68770000Y-54250000D03*
%TO.P,J3,3,Pin_3_3*%
%TO.N,/SWCLK*%
X66230000Y-54250000D03*
%TO.P,J3,4,Pin_4_4*%
%TO.N,GND*%
X63690000Y-54250000D03*
%TD*%
D22*
%TO.P,C5,1*%
%TO.N,+3.3V*%
X65980000Y-73000000D03*
%TO.P,C5,2*%
%TO.N,GND*%
X65020000Y-73000000D03*
%TD*%
%TO.P,C10,1*%
%TO.N,+3.3V*%
X56230000Y-72912500D03*
%TO.P,C10,2*%
%TO.N,GND*%
X55270000Y-72912500D03*
%TD*%
D19*
%TO.P,D1,1,K_1*%
%TO.N,/PWR_LED_K*%
X78250000Y-75212500D03*
%TO.P,D1,2,A_2*%
%TO.N,+3.3V*%
X78250000Y-76787500D03*
%TD*%
D23*
%TO.P,R2,1*%
%TO.N,/SW_BOOT0*%
X48250000Y-63672500D03*
%TO.P,R2,2*%
%TO.N,/BOOT0*%
X48250000Y-62652500D03*
%TD*%
D24*
%TO.P,Y1,1,1_1*%
%TO.N,/HSE_IN*%
X49400000Y-65650000D03*
%TO.P,Y1,2,G_2*%
%TO.N,GND*%
X49400000Y-67850000D03*
%TO.P,Y1,3,3_3*%
%TO.N,/HSE_OUT*%
X51100000Y-67850000D03*
%TO.P,Y1,4,G_4*%
%TO.N,GND*%
X51100000Y-65650000D03*
%TD*%
D25*
%TO.P,C7,1*%
%TO.N,+3.3V*%
X59270000Y-60750000D03*
%TO.P,C7,2*%
%TO.N,GND*%
X60230000Y-60750000D03*
%TD*%
D22*
%TO.P,C9,1*%
%TO.N,+3.3VA*%
X56230000Y-71412500D03*
%TO.P,C9,2*%
%TO.N,GND*%
X55270000Y-71412500D03*
%TD*%
D26*
%TO.P,U2,1,VBAT_1*%
%TO.N,+3.3V*%
X58087500Y-63912500D03*
%TO.P,U2,2,PC13_2*%
%TO.N,unconnected-(U2-PC13-Pad2)*%
X58087500Y-64412500D03*
%TO.P,U2,3,PC14_3*%
%TO.N,unconnected-(U2-PC14-Pad3)*%
X58087500Y-64912500D03*
%TO.P,U2,4,PC15_4*%
%TO.N,unconnected-(U2-PC15-Pad4)*%
X58087500Y-65412500D03*
%TO.P,U2,5,PD0_5*%
%TO.N,/HSE_IN*%
X58087500Y-65912500D03*
%TO.P,U2,6,PD1_6*%
%TO.N,/HSE_OUT*%
X58087500Y-66412500D03*
%TO.P,U2,7,NRST_7*%
%TO.N,/NRST*%
X58087500Y-66912500D03*
%TO.P,U2,8,VSSA_8*%
%TO.N,GND*%
X58087500Y-67412500D03*
%TO.P,U2,9,VDDA_9*%
%TO.N,+3.3VA*%
X58087500Y-67912500D03*
%TO.P,U2,10,PA0_10*%
%TO.N,unconnected-(U2-PA0-Pad10)*%
X58087500Y-68412500D03*
%TO.P,U2,11,PA1_11*%
%TO.N,unconnected-(U2-PA1-Pad11)*%
X58087500Y-68912500D03*
%TO.P,U2,12,PA2_12*%
%TO.N,unconnected-(U2-PA2-Pad12)*%
X58087500Y-69412500D03*
D27*
%TO.P,U2,13,PA3_13*%
%TO.N,unconnected-(U2-PA3-Pad13)*%
X59500000Y-70825000D03*
%TO.P,U2,14,PA4_14*%
%TO.N,unconnected-(U2-PA4-Pad14)*%
X60000000Y-70825000D03*
%TO.P,U2,15,PA5_15*%
%TO.N,unconnected-(U2-PA5-Pad15)*%
X60500000Y-70825000D03*
%TO.P,U2,16,PA6_16*%
%TO.N,unconnected-(U2-PA6-Pad16)*%
X61000000Y-70825000D03*
%TO.P,U2,17,PA7_17*%
%TO.N,unconnected-(U2-PA7-Pad17)*%
X61500000Y-70825000D03*
%TO.P,U2,18,PB0_18*%
%TO.N,unconnected-(U2-PB0-Pad18)*%
X62000000Y-70825000D03*
%TO.P,U2,19,PB1_19*%
%TO.N,unconnected-(U2-PB1-Pad19)*%
X62500000Y-70825000D03*
%TO.P,U2,20,PB2_20*%
%TO.N,unconnected-(U2-PB2-Pad20)*%
X63000000Y-70825000D03*
%TO.P,U2,21,PB10_21*%
%TO.N,/I2C2_SCL*%
X63500000Y-70825000D03*
%TO.P,U2,22,PB11_22*%
%TO.N,/I2C2_SDA*%
X64000000Y-70825000D03*
%TO.P,U2,23,VSS_23*%
%TO.N,GND*%
X64500000Y-70825000D03*
%TO.P,U2,24,VDD_24*%
%TO.N,+3.3V*%
X65000000Y-70825000D03*
D26*
%TO.P,U2,25,PB12_25*%
%TO.N,unconnected-(U2-PB12-Pad25)*%
X66412500Y-69412500D03*
%TO.P,U2,26,PB13_26*%
%TO.N,unconnected-(U2-PB13-Pad26)*%
X66412500Y-68912500D03*
%TO.P,U2,27,PB14_27*%
%TO.N,unconnected-(U2-PB14-Pad27)*%
X66412500Y-68412500D03*
%TO.P,U2,28,PB15_28*%
%TO.N,unconnected-(U2-PB15-Pad28)*%
X66412500Y-67912500D03*
%TO.P,U2,29,PA8_29*%
%TO.N,unconnected-(U2-PA8-Pad29)*%
X66412500Y-67412500D03*
%TO.P,U2,30,PA9_30*%
%TO.N,unconnected-(U2-PA9-Pad30)*%
X66412500Y-66912500D03*
%TO.P,U2,31,PA10_31*%
%TO.N,unconnected-(U2-PA10-Pad31)*%
X66412500Y-66412500D03*
%TO.P,U2,32,PA11_32*%
%TO.N,/USB_D-*%
X66412500Y-65912500D03*
%TO.P,U2,33,PA12_33*%
%TO.N,/USB_D+*%
X66412500Y-65412500D03*
%TO.P,U2,34,PA13_34*%
%TO.N,/SWDIO*%
X66412500Y-64912500D03*
%TO.P,U2,35,VSS_35*%
%TO.N,GND*%
X66412500Y-64412500D03*
%TO.P,U2,36,VDD_36*%
%TO.N,+3.3V*%
X66412500Y-63912500D03*
D27*
%TO.P,U2,37,PA14_37*%
%TO.N,/SWCLK*%
X65000000Y-62500000D03*
%TO.P,U2,38,PA15_38*%
%TO.N,unconnected-(U2-PA15-Pad38)*%
X64500000Y-62500000D03*
%TO.P,U2,39,PB3_39*%
%TO.N,unconnected-(U2-PB3-Pad39)*%
X64000000Y-62500000D03*
%TO.P,U2,40,PB4_40*%
%TO.N,unconnected-(U2-PB4-Pad40)*%
X63500000Y-62500000D03*
%TO.P,U2,41,PB5_41*%
%TO.N,unconnected-(U2-PB5-Pad41)*%
X63000000Y-62500000D03*
%TO.P,U2,42,PB6_42*%
%TO.N,/UART1_TX*%
X62500000Y-62500000D03*
%TO.P,U2,43,PB7_43*%
%TO.N,/UART1_RX*%
X62000000Y-62500000D03*
%TO.P,U2,44,BOOT0_44*%
%TO.N,/BOOT0*%
X61500000Y-62500000D03*
%TO.P,U2,45,PB8_45*%
%TO.N,unconnected-(U2-PB8-Pad45)*%
X61000000Y-62500000D03*
%TO.P,U2,46,PB9_46*%
%TO.N,unconnected-(U2-PB9-Pad46)*%
X60500000Y-62500000D03*
%TO.P,U2,47,VSS_47*%
%TO.N,GND*%
X60000000Y-62500000D03*
%TO.P,U2,48,VDD_48*%
%TO.N,+3.3V*%
X59500000Y-62500000D03*
%TD*%
D25*
%TO.P,C1,1*%
%TO.N,VBUS*%
X70000000Y-70250000D03*
%TO.P,C1,2*%
%TO.N,GND*%
X70960000Y-70250000D03*
%TD*%
D28*
%TO.P,J1,1,VBUS_1*%
%TO.N,VBUS*%
X77095000Y-66805000D03*
%TO.P,J1,2,D-_2*%
%TO.N,/USB_D-*%
X77095000Y-66155000D03*
%TO.P,J1,3,D+_3*%
%TO.N,/USB_D+*%
X77095000Y-65505000D03*
%TO.P,J1,4,ID_4*%
%TO.N,unconnected-(J1-ID-Pad4)*%
X77095000Y-64855000D03*
%TO.P,J1,5,GND_5*%
%TO.N,GND*%
X77095000Y-64205000D03*
D29*
%TO.P,J1,SH,Shield_SH*%
%TO.N,unconnected-(J1-Shield-PadSH)_3*%
X80945000Y-69380000D03*
D30*
%TO.N,unconnected-(J1-Shield-PadSH)_2*%
X77145000Y-69230000D03*
%TO.N,unconnected-(J1-Shield-PadSH)_1*%
X77145000Y-61780000D03*
D29*
%TO.N,unconnected-(J1-Shield-PadSH)*%
X80945000Y-61630000D03*
%TD*%
D25*
%TO.P,C11,1*%
%TO.N,/NRST*%
X59750000Y-72912500D03*
%TO.P,C11,2*%
%TO.N,GND*%
X60710000Y-72912500D03*
%TD*%
D31*
%TO.P,SW1,*%
%TO.N,*%
X45280000Y-59850000D03*
X43070000Y-59850000D03*
X45280000Y-67150000D03*
X43070000Y-67150000D03*
D32*
%TO.P,SW1,1,A_1*%
%TO.N,GND*%
X45930000Y-61250000D03*
%TO.P,SW1,2,B_2*%
%TO.N,/SW_BOOT0*%
X45930000Y-64250000D03*
%TO.P,SW1,3,C_3*%
%TO.N,+3.3V*%
X45930000Y-65750000D03*
%TD*%
D12*
%TO.P,C4,1*%
%TO.N,+3.3V*%
X56250000Y-63980000D03*
%TO.P,C4,2*%
%TO.N,GND*%
X56250000Y-63020000D03*
%TD*%
D33*
%TO.N,+3.3V*%
X59090000Y-78250000D03*
X60390000Y-78250000D03*
X62610000Y-76000000D03*
X63910000Y-76000000D03*
%TO.N,GND*%
X54500000Y-65000000D03*
X55334620Y-67584620D03*
X69500000Y-64750000D03*
X60000000Y-63750000D03*
X54518262Y-66562499D03*
X72000000Y-70500000D03*
X64500000Y-69500000D03*
X52350000Y-65650000D03*
X55250000Y-63000000D03*
X72000000Y-69849997D03*
X78500000Y-64250000D03*
X77000000Y-72750000D03*
X61662500Y-72912500D03*
X72500000Y-73750000D03*
X48100000Y-67850000D03*
X46250000Y-62250000D03*
X55270000Y-73750000D03*
X76750000Y-74750000D03*
X54500000Y-70500000D03*
X73250000Y-73750000D03*
%TD*%
%TO.N,+3.3V*%
D34*
X60750000Y-78250000D02*
X60390000Y-78250000D01*
X60760000Y-77250000D02*
X62240000Y-77250000D01*
X80250000Y-74787500D02*
X78250000Y-76787500D01*
X72250000Y-64490000D02*
X71240000Y-64490000D01*
X66500000Y-76500000D02*
X66500000Y-80750000D01*
D35*
X59270000Y-60750000D02*
X59270000Y-61520000D01*
D34*
X57250000Y-61750000D02*
X58087500Y-62587500D01*
X57750000Y-72987500D02*
X57750000Y-76750000D01*
X50000000Y-76750000D02*
X56250000Y-76750000D01*
X59250000Y-54250000D02*
X60750000Y-52750000D01*
X73750000Y-54250000D02*
X79250000Y-59750000D01*
X56440000Y-80500000D02*
X56440000Y-76940000D01*
D35*
X67480000Y-63770000D02*
X68500000Y-63770000D01*
D34*
X56440000Y-76940000D02*
X56250000Y-76750000D01*
X66500000Y-80750000D02*
X67250000Y-81500000D01*
X58795000Y-78250000D02*
X59090000Y-78250000D01*
X60760000Y-77250000D02*
X60760000Y-78240000D01*
X56250000Y-76750000D02*
X57750000Y-76750000D01*
X71310000Y-62940000D02*
X70500000Y-63750000D01*
X71240000Y-64490000D02*
X70500000Y-63750000D01*
X57250000Y-59250000D02*
X58975000Y-59250000D01*
X60760000Y-78240000D02*
X60750000Y-78250000D01*
X58975000Y-59250000D02*
X58975000Y-59725000D01*
X80250000Y-72250000D02*
X80250000Y-74787500D01*
X45930000Y-65750000D02*
X46250000Y-65750000D01*
X69810000Y-52750000D02*
X71310000Y-54250000D01*
X70500000Y-63750000D02*
X70480000Y-63770000D01*
X65000000Y-76000000D02*
X65500000Y-75500000D01*
D35*
X56317500Y-63912500D02*
X56250000Y-63980000D01*
D34*
X56230000Y-72912500D02*
X57675000Y-72912500D01*
X75500000Y-76750000D02*
X78212500Y-76750000D01*
X54000000Y-59250000D02*
X57250000Y-59250000D01*
X57750000Y-77205000D02*
X58795000Y-78250000D01*
X57250000Y-59250000D02*
X57250000Y-61750000D01*
X65980000Y-74980000D02*
X65980000Y-73000000D01*
X63910000Y-76000000D02*
X65000000Y-76000000D01*
X46250000Y-65750000D02*
X46250000Y-73000000D01*
D35*
X67337500Y-63912500D02*
X67480000Y-63770000D01*
D34*
X58087500Y-62587500D02*
X58087500Y-63812500D01*
X60750000Y-52750000D02*
X69810000Y-52750000D01*
X70480000Y-63770000D02*
X68500000Y-63770000D01*
X65500000Y-75500000D02*
X66500000Y-76500000D01*
X58975000Y-59725000D02*
X59270000Y-60020000D01*
X71310000Y-54250000D02*
X73750000Y-54250000D01*
X57750000Y-76750000D02*
X57750000Y-77205000D01*
X65500000Y-75500000D02*
X66000000Y-75000000D01*
X66000000Y-75000000D02*
X65980000Y-74980000D01*
D35*
X58087500Y-63912500D02*
X56317500Y-63912500D01*
X66412500Y-63912500D02*
X67337500Y-63912500D01*
D34*
X62240000Y-77250000D02*
X62240000Y-76370000D01*
X74000000Y-81500000D02*
X75500000Y-80000000D01*
D35*
X65289999Y-72000000D02*
X65000000Y-72000000D01*
D34*
X79250000Y-59750000D02*
X79250000Y-71250000D01*
X71310000Y-54250000D02*
X71310000Y-62940000D01*
X75500000Y-80000000D02*
X75500000Y-76750000D01*
D35*
X59500000Y-62500000D02*
X59500000Y-61750000D01*
X65980000Y-73000000D02*
X65980000Y-72690001D01*
D34*
X62240000Y-76370000D02*
X62610000Y-76000000D01*
X46250000Y-73000000D02*
X50000000Y-76750000D01*
D35*
X65000000Y-72000000D02*
X65000000Y-70825000D01*
D34*
X57675000Y-72912500D02*
X57750000Y-72987500D01*
X67250000Y-81500000D02*
X74000000Y-81500000D01*
X47500000Y-65750000D02*
X54000000Y-59250000D01*
D35*
X59270000Y-61520000D02*
X59500000Y-61750000D01*
D34*
X78212500Y-76750000D02*
X78250000Y-76787500D01*
X59270000Y-60020000D02*
X59270000Y-60750000D01*
D35*
X65980000Y-72690001D02*
X65289999Y-72000000D01*
D34*
X79250000Y-71250000D02*
X80250000Y-72250000D01*
X45930000Y-65750000D02*
X47500000Y-65750000D01*
%TO.N,/I2C2_SCL*%
D35*
X63500000Y-70825000D02*
X63500000Y-71750000D01*
X59740000Y-77250000D02*
X62500000Y-74490000D01*
X59740000Y-77250000D02*
X59740000Y-78760000D01*
X58980000Y-79520000D02*
X58980000Y-80500000D01*
X63500000Y-71750000D02*
X62500000Y-72750000D01*
X62500000Y-72750000D02*
X62500000Y-74490000D01*
X59740000Y-78760000D02*
X58980000Y-79520000D01*
%TO.N,/I2C2_SDA*%
X63260000Y-78760000D02*
X61520000Y-80500000D01*
X64000000Y-74250000D02*
X63260000Y-74990000D01*
X63260000Y-77250000D02*
X63260000Y-78760000D01*
X64000000Y-70825000D02*
X64000000Y-74250000D01*
X63260000Y-74990000D02*
X63260000Y-77250000D01*
%TO.N,GND*%
D34*
X60525000Y-59725000D02*
X60230000Y-60020000D01*
D35*
X60230000Y-61429380D02*
X60230000Y-60750000D01*
D34*
X55270000Y-71270000D02*
X55270000Y-71412500D01*
D35*
X77095000Y-64205000D02*
X78455000Y-64205000D01*
D34*
X54480000Y-65020000D02*
X54500000Y-65000000D01*
D35*
X56250000Y-67520000D02*
X56357500Y-67412500D01*
X65020000Y-73000000D02*
X64500000Y-72480000D01*
D34*
X53750000Y-65020000D02*
X54480000Y-65020000D01*
X46250000Y-62250000D02*
X46250000Y-61570000D01*
D35*
X60000000Y-61659380D02*
X60230000Y-61429380D01*
X64500000Y-70825000D02*
X64500000Y-69500000D01*
D34*
X54060761Y-67020000D02*
X54518262Y-66562499D01*
X60525000Y-59250000D02*
X60525000Y-59725000D01*
X54500000Y-70500000D02*
X55270000Y-71270000D01*
X55270000Y-63020000D02*
X55250000Y-63000000D01*
X56250000Y-63020000D02*
X55270000Y-63020000D01*
X55270000Y-73750000D02*
X55270000Y-72912500D01*
D35*
X60000000Y-62500000D02*
X60000000Y-63750000D01*
X55455380Y-67584620D02*
X55520000Y-67520000D01*
X60000000Y-62500000D02*
X60000000Y-61659380D01*
X69250000Y-64750000D02*
X69230000Y-64730000D01*
D34*
X48100000Y-67850000D02*
X49400000Y-67850000D01*
D35*
X56357500Y-67412500D02*
X58087500Y-67412500D01*
X77000000Y-72750000D02*
X77050000Y-72800000D01*
X67412500Y-64412500D02*
X67730000Y-64730000D01*
X77050000Y-72800000D02*
X77990000Y-72800000D01*
D34*
X52350000Y-65650000D02*
X51100000Y-65650000D01*
D35*
X69500000Y-64750000D02*
X69250000Y-64750000D01*
D34*
X46250000Y-61570000D02*
X45930000Y-61250000D01*
D35*
X67730000Y-64730000D02*
X68500000Y-64730000D01*
X55520000Y-67520000D02*
X56250000Y-67520000D01*
D34*
X61662500Y-72912500D02*
X60710000Y-72912500D01*
X60230000Y-60020000D02*
X60230000Y-60750000D01*
X53750000Y-67020000D02*
X54060761Y-67020000D01*
D35*
X66412500Y-64412500D02*
X67412500Y-64412500D01*
X64500000Y-72480000D02*
X64500000Y-70825000D01*
X69230000Y-64730000D02*
X68500000Y-64730000D01*
X55334620Y-67584620D02*
X55455380Y-67584620D01*
X78455000Y-64205000D02*
X78500000Y-64250000D01*
%TO.N,/HSE_OUT*%
X55587500Y-66412500D02*
X58087500Y-66412500D01*
X53750000Y-67980000D02*
X54020000Y-67980000D01*
X54020000Y-67980000D02*
X55587500Y-66412500D01*
X53620000Y-67850000D02*
X53750000Y-67980000D01*
X51100000Y-67850000D02*
X53620000Y-67850000D01*
%TO.N,/HSE_IN*%
X53750000Y-65980000D02*
X53030000Y-66700000D01*
X50450000Y-66700000D02*
X49400000Y-65650000D01*
X53817500Y-65912500D02*
X53750000Y-65980000D01*
X53030000Y-66700000D02*
X50450000Y-66700000D01*
X58087500Y-65912500D02*
X53817500Y-65912500D01*
%TO.N,+3.3VA*%
D34*
X56230000Y-71412500D02*
X57750000Y-71412500D01*
D35*
X56520000Y-68480000D02*
X57087500Y-67912500D01*
D34*
X56230000Y-71412500D02*
X56230000Y-68500000D01*
D35*
X56250000Y-68480000D02*
X56520000Y-68480000D01*
D34*
X56230000Y-68500000D02*
X56250000Y-68480000D01*
D35*
X57087500Y-67912500D02*
X58087500Y-67912500D01*
%TO.N,/PWR_LED_K*%
D34*
X79010000Y-74452500D02*
X79010000Y-72800000D01*
X78250000Y-75212500D02*
X79010000Y-74452500D01*
%TO.N,/UART1_TX*%
D35*
X57750000Y-56000000D02*
X56710000Y-54960000D01*
X63000000Y-61000000D02*
X63000000Y-57500000D01*
X62500000Y-61500000D02*
X63000000Y-61000000D01*
X62500000Y-62500000D02*
X62500000Y-61500000D01*
X63000000Y-57500000D02*
X61500000Y-56000000D01*
X61500000Y-56000000D02*
X57750000Y-56000000D01*
X56710000Y-54960000D02*
X56710000Y-54250000D01*
%TO.N,/UART1_RX*%
X62250000Y-60500000D02*
X62250000Y-58000000D01*
X62000000Y-60750000D02*
X62250000Y-60500000D01*
X62000000Y-62500000D02*
X62000000Y-60750000D01*
X62250000Y-58000000D02*
X61000000Y-56750000D01*
X56670000Y-56750000D02*
X54170000Y-54250000D01*
X61000000Y-56750000D02*
X56670000Y-56750000D01*
%TO.N,/USB_D+*%
X72250000Y-65510000D02*
X77090000Y-65510000D01*
X66412500Y-65412500D02*
X72152500Y-65412500D01*
X72152500Y-65412500D02*
X72250000Y-65510000D01*
X77090000Y-65510000D02*
X77095000Y-65505000D01*
%TO.N,/SWDIO*%
X66412500Y-64912500D02*
X65571880Y-64912500D01*
X65325000Y-64665620D02*
X65325000Y-63659380D01*
X65325000Y-63659380D02*
X68770000Y-60214380D01*
X68770000Y-60214380D02*
X68770000Y-54250000D01*
X65571880Y-64912500D02*
X65325000Y-64665620D01*
%TO.N,/SWCLK*%
X65000000Y-60750000D02*
X66250000Y-59500000D01*
X65000000Y-62500000D02*
X65000000Y-60750000D01*
X66230000Y-59480000D02*
X66230000Y-54250000D01*
X66250000Y-59500000D02*
X66230000Y-59480000D01*
%TO.N,/SW_BOOT0*%
X45930000Y-64250000D02*
X47672500Y-64250000D01*
X47672500Y-64250000D02*
X48250000Y-63672500D01*
%TO.N,/BOOT0*%
X61500000Y-62500000D02*
X61500000Y-58250000D01*
X50500000Y-57500000D02*
X48250000Y-59750000D01*
X48250000Y-59750000D02*
X48250000Y-62652500D01*
X61500000Y-58250000D02*
X60750000Y-57500000D01*
X60750000Y-57500000D02*
X50500000Y-57500000D01*
%TO.N,/NRST*%
X58087500Y-66912500D02*
X58928120Y-66912500D01*
X59246880Y-67231260D02*
X59246880Y-69737500D01*
X59246880Y-69737500D02*
X59000000Y-69984380D01*
X59000000Y-69984380D02*
X59000000Y-72162500D01*
X58928120Y-66912500D02*
X59246880Y-67231260D01*
X59000000Y-72162500D02*
X59750000Y-72912500D01*
%TO.N,/USB_D-*%
X67253120Y-65912500D02*
X67495620Y-66155000D01*
X66412500Y-65912500D02*
X67253120Y-65912500D01*
X67495620Y-66155000D02*
X77095000Y-66155000D01*
%TD*%
%TA.AperFunction,Conductor*%
%TO.N,VBUS*%
G36*
X77693039Y-66769685D02*
G01*
X77738794Y-66822489D01*
X77750000Y-66874000D01*
X77750000Y-66876000D01*
X77730315Y-66943039D01*
X77677511Y-66988794D01*
X77626000Y-67000000D01*
X70250000Y-67000000D01*
X70250000Y-69500000D01*
X70430755Y-69696473D01*
X70461658Y-69759137D01*
X70453777Y-69828561D01*
X70439272Y-69854059D01*
X70426149Y-69871840D01*
X70382291Y-69997176D01*
X70382289Y-69997185D01*
X70379500Y-70026929D01*
X70379500Y-70473070D01*
X70382289Y-70502814D01*
X70382291Y-70502825D01*
X70386337Y-70514387D01*
X70387182Y-70530951D01*
X70392979Y-70546492D01*
X70388926Y-70565123D01*
X70389898Y-70584165D01*
X70381530Y-70599124D01*
X70378128Y-70614765D01*
X70356977Y-70643020D01*
X70286319Y-70713680D01*
X70224997Y-70747166D01*
X70198637Y-70750000D01*
X69749999Y-70750000D01*
X69250000Y-71249999D01*
X69250000Y-73198638D01*
X69230315Y-73265677D01*
X69213681Y-73286319D01*
X68786319Y-73713681D01*
X68724996Y-73747166D01*
X68698638Y-73750000D01*
X67576636Y-73750000D01*
X67509597Y-73730315D01*
X67465727Y-73681454D01*
X67268160Y-73286319D01*
X67263091Y-73276182D01*
X67250000Y-73220728D01*
X67250000Y-71301362D01*
X67269685Y-71234323D01*
X67286319Y-71213681D01*
X67500000Y-71000000D01*
X67500000Y-67562000D01*
X67519685Y-67494961D01*
X67549600Y-67462800D01*
X68466933Y-66774799D01*
X68532375Y-66750324D01*
X68541333Y-66750000D01*
X77626000Y-66750000D01*
X77693039Y-66769685D01*
G37*
%TD.AperFunction*%
%TD*%
%TA.AperFunction,Conductor*%
%TO.N,+3.3V*%
G36*
X70965740Y-71005021D02*
G01*
X70990984Y-71012434D01*
X71043730Y-71043730D01*
X71451074Y-71451074D01*
X71472223Y-71479325D01*
X71484831Y-71502414D01*
X71500000Y-71561843D01*
X71500000Y-75500000D01*
X72000000Y-76000000D01*
X76180808Y-76000000D01*
X76215740Y-76005021D01*
X76240984Y-76012434D01*
X76293730Y-76043730D01*
X76701073Y-76451073D01*
X76722223Y-76479325D01*
X76734831Y-76502414D01*
X76750000Y-76561843D01*
X76750000Y-77180808D01*
X76749999Y-77180810D01*
X76750000Y-77180811D01*
X76744976Y-77215745D01*
X76737564Y-77240986D01*
X76706269Y-77293730D01*
X76298926Y-77701073D01*
X76270675Y-77722222D01*
X76247587Y-77734830D01*
X76188157Y-77750000D01*
X73000000Y-77750000D01*
X73000000Y-79430808D01*
X72999999Y-79430810D01*
X73000000Y-79430811D01*
X72994976Y-79465745D01*
X72987564Y-79490986D01*
X72956269Y-79543730D01*
X72298926Y-80201073D01*
X72270675Y-80222222D01*
X72247587Y-80234830D01*
X72188157Y-80250000D01*
X69059163Y-80250000D01*
X69059162Y-80249999D01*
X69059162Y-80250000D01*
X69024228Y-80244977D01*
X68994926Y-80236373D01*
X68955461Y-80216596D01*
X68951573Y-80213680D01*
X68063862Y-79547896D01*
X68038930Y-79522920D01*
X68033518Y-79515677D01*
X68025300Y-79504679D01*
X68020141Y-79492801D01*
X68013712Y-79485886D01*
X68002589Y-79452390D01*
X68001955Y-79448862D01*
X68000000Y-79426930D01*
X68000000Y-77819191D01*
X68005022Y-77784258D01*
X68012434Y-77759013D01*
X68043728Y-77706271D01*
X68750000Y-77000000D01*
X68750000Y-74569191D01*
X68755022Y-74534258D01*
X68762434Y-74509013D01*
X68793728Y-74456271D01*
X69500000Y-73750000D01*
X69500000Y-73427560D01*
X69513469Y-73371356D01*
X69523439Y-73351749D01*
X69543124Y-73284710D01*
X69555500Y-73198638D01*
X69555500Y-71495862D01*
X69575185Y-71428823D01*
X69591819Y-71408181D01*
X69908181Y-71091819D01*
X69969504Y-71058334D01*
X69995862Y-71055500D01*
X70198640Y-71055500D01*
X70214083Y-71054672D01*
X70231294Y-71053750D01*
X70257654Y-71050916D01*
X70257705Y-71050909D01*
X70257732Y-71050907D01*
X70260456Y-71050581D01*
X70264667Y-71050079D01*
X70371413Y-71015294D01*
X70371647Y-71015165D01*
X70371801Y-71015126D01*
X70376673Y-71013024D01*
X70377007Y-71013798D01*
X70431071Y-71000000D01*
X70930808Y-71000000D01*
X70965740Y-71005021D01*
G37*
%TD.AperFunction*%
%TD*%
%TA.AperFunction,Conductor*%
%TO.N,GND*%
G36*
X72393106Y-69505023D02*
G01*
X72408104Y-69509427D01*
X72423094Y-69519057D01*
X72440175Y-69524067D01*
X72466855Y-69547172D01*
X72468042Y-69548541D01*
X72495518Y-69603402D01*
X72497163Y-69610960D01*
X72500000Y-69637331D01*
X72500000Y-70750000D01*
X72750000Y-71000000D01*
X73430808Y-71000000D01*
X73465740Y-71005021D01*
X73490984Y-71012434D01*
X73543730Y-71043730D01*
X73951073Y-71451073D01*
X73972223Y-71479325D01*
X73984831Y-71502414D01*
X74000000Y-71561843D01*
X74000000Y-73500000D01*
X74500000Y-74000000D01*
X76680808Y-74000000D01*
X76709592Y-74004138D01*
X76715740Y-74005021D01*
X76740984Y-74012434D01*
X76793730Y-74043730D01*
X77201073Y-74451073D01*
X77222223Y-74479325D01*
X77234831Y-74502414D01*
X77250000Y-74561843D01*
X77250000Y-75437276D01*
X77249999Y-75437278D01*
X77250000Y-75437279D01*
X77244976Y-75472214D01*
X77236892Y-75499743D01*
X77213175Y-75544188D01*
X77048593Y-75741686D01*
X77022372Y-75765307D01*
X77002069Y-75778915D01*
X76951902Y-75798466D01*
X76951318Y-75798556D01*
X76932453Y-75800000D01*
X76515666Y-75800000D01*
X76452391Y-75782641D01*
X76446111Y-75778915D01*
X76406453Y-75755384D01*
X76396877Y-75749702D01*
X76396871Y-75749699D01*
X76327063Y-75719311D01*
X76301815Y-75711897D01*
X76301805Y-75711895D01*
X76259192Y-75702626D01*
X76224276Y-75697608D01*
X76224267Y-75697607D01*
X76180811Y-75694500D01*
X76180808Y-75694500D01*
X74396731Y-75694500D01*
X74329692Y-75674815D01*
X74323402Y-75670494D01*
X73815048Y-75297701D01*
X73789850Y-75272996D01*
X73776235Y-75255177D01*
X73752844Y-75202494D01*
X73752077Y-75198356D01*
X73751346Y-75190402D01*
X73751176Y-75189960D01*
X73751265Y-75189527D01*
X73750000Y-75175757D01*
X73750000Y-74500000D01*
X73500000Y-74250000D01*
X72069192Y-74250000D01*
X72069191Y-74249999D01*
X72069191Y-74250000D01*
X72034256Y-74244977D01*
X72009014Y-74237565D01*
X71956269Y-74206269D01*
X71841819Y-74091819D01*
X71808334Y-74030496D01*
X71805500Y-74004138D01*
X71805500Y-71561843D01*
X71805499Y-71561839D01*
X71804183Y-71551362D01*
X71796010Y-71486288D01*
X71780841Y-71426859D01*
X71752968Y-71356017D01*
X71752963Y-71356008D01*
X71752960Y-71355999D01*
X71740352Y-71332910D01*
X71716786Y-71296243D01*
X71695637Y-71267992D01*
X71667095Y-71235053D01*
X71468361Y-71036319D01*
X71259762Y-70827719D01*
X71259746Y-70827705D01*
X71199623Y-70780999D01*
X71199619Y-70780996D01*
X71146876Y-70749701D01*
X71146871Y-70749699D01*
X71077063Y-70719311D01*
X71051815Y-70711897D01*
X71051805Y-70711895D01*
X71009192Y-70702626D01*
X70974276Y-70697608D01*
X70974267Y-70697607D01*
X70930811Y-70694500D01*
X70930808Y-70694500D01*
X70874000Y-70694500D01*
X70806961Y-70674815D01*
X70761206Y-70622011D01*
X70750000Y-70570500D01*
X70750000Y-69905492D01*
X70751419Y-69886786D01*
X70752790Y-69877798D01*
X70757327Y-69863020D01*
X70763954Y-69804642D01*
X70764311Y-69802303D01*
X70778129Y-69772721D01*
X70790803Y-69742632D01*
X70793514Y-69739788D01*
X70793883Y-69739000D01*
X70794844Y-69738393D01*
X70804038Y-69728752D01*
X70806104Y-69726897D01*
X70833494Y-69708252D01*
X71210906Y-69519546D01*
X71237869Y-69509774D01*
X71265223Y-69503317D01*
X71293711Y-69500000D01*
X72358170Y-69500000D01*
X72393106Y-69505023D01*
G37*
%TD.AperFunction*%
%TD*%
M02*
