M48
; DRILL file KiCad 10.0.3 date 2026-05-26T02:46:32
; FORMAT={-:-/ absolute / metric / decimal}
; #@! TF.CreationDate,2026-05-26T02:46:32+05:30
; #@! TF.GenerationSoftware,Kicad,Pcbnew,10.0.3
; #@! TF.FileFunction,MixedPlating,1,2
FMAT,2
METRIC
; #@! TA.AperFunction,Plated,PTH,ViaDrill
T1C0.300
; #@! TA.AperFunction,Plated,PTH,ComponentDrill
T2C0.550
; #@! TA.AperFunction,Plated,PTH,ComponentDrill
T3C0.850
; #@! TA.AperFunction,Plated,PTH,ComponentDrill
T4C1.000
; #@! TA.AperFunction,NonPlated,NPTH,ComponentDrill
T5C0.800
; #@! TA.AperFunction,NonPlated,NPTH,ComponentDrill
T6C0.900
; #@! TA.AperFunction,NonPlated,NPTH,ComponentDrill
T7C2.200
%
G90
G05
T1
X46.25Y-62.25
X48.1Y-67.85
X52.35Y-65.65
X54.5Y-65.0
X54.5Y-70.5
X54.518Y-66.562
X55.25Y-63.0
X55.27Y-73.75
X55.335Y-67.585
X59.09Y-78.25
X60.0Y-63.75
X60.39Y-78.25
X61.662Y-72.912
X62.61Y-76.0
X63.91Y-76.0
X64.5Y-69.5
X69.5Y-64.75
X72.0Y-69.85
X72.0Y-70.5
X72.5Y-73.75
X73.25Y-73.75
X76.75Y-74.75
X77.0Y-72.75
X78.5Y-64.25
T4
X51.63Y-54.25
X54.17Y-54.25
X56.44Y-80.5
X56.71Y-54.25
X58.98Y-80.5
X59.25Y-54.25
X61.52Y-80.5
X63.69Y-54.25
X64.06Y-80.5
X66.23Y-54.25
X68.77Y-54.25
X71.31Y-54.25
T5
X78.195Y-63.005
X78.195Y-68.005
T6
X44.17Y-62.0
X44.17Y-65.0
T7
X45.0Y-55.0
X45.0Y-80.0
X80.0Y-55.0
X80.0Y-80.0
T2
G00X80.62Y-61.63
M15
G01X81.27Y-61.63
M16
G05
G00X80.62Y-69.38
M15
G01X81.27Y-69.38
M16
G05
T3
G00X76.87Y-61.78
M15
G01X77.42Y-61.78
M16
G05
G00X76.87Y-69.23
M15
G01X77.42Y-69.23
M16
G05
M30
